<?xml version="1.0" encoding="UTF-8" standalone="no"?>
<!DOCTYPE svg PUBLIC "-//W3C//DTD SVG 1.1//EN" "http://www.w3.org/Graphics/SVG/1.1/DTD/svg11.dtd">
<svg version="1.1" xmlns="http://www.w3.org/2000/svg" xmlns:xlink="http://www.w3.org/1999/xlink" preserveAspectRatio="xMidYMid meet" viewBox="0 0 287.77 287.77" width="287.77" height="287.77"><defs><path d="M31.85 95.71C29.2 104.85 28.6 109.99 28.12 125.53C27.52 142.07 27.76 145.83 30.17 155.35C34.5 173.4 40.17 185.05 53.66 203.22C61.5 213.62 73.3 225.9 86.8 237.55C91.14 241.31 94.75 244.82 94.99 245.32C95.59 246.82 62.82 246.7 52.7 245.2C38.12 242.94 30.17 236.42 23.18 221.01C20.29 214.75 18.72 212.62 16.91 212.62C13.06 212.62 12.94 214.87 16.07 228.4C17.64 235.17 20.29 248.58 21.85 258.1C22.05 259.26 23.01 265.07 24.74 275.52C28 274.99 29.81 274.7 30.17 274.64C33.18 274.27 55.47 273.64 79.93 273.26C82.88 273.21 97.62 272.96 124.15 272.51C124.15 270.63 124.15 269.59 124.15 269.38C124.15 267.25 120.18 261.23 111.38 250.46C81.5 213.12 65.71 182.04 61.5 151.34C59.45 136.93 60.65 109.87 63.78 96.33C73.06 57.49 97.16 31.05 128.37 25.29C140.78 23.03 146.68 23.03 159.82 25.29C188.01 30.3 210.06 50.6 220.31 81.05C225.13 95.58 226.93 107.74 226.93 125.53C226.81 166.75 212.11 202.22 175.48 249.58C166.32 261.49 163.91 265.5 163.91 268.63C163.91 268.89 163.91 270.18 163.91 272.51C189.8 272.96 204.18 273.21 207.05 273.26C230.67 273.64 252.84 274.27 256.21 274.77C256.62 274.82 258.67 275.07 262.36 275.52C264.38 264.32 265.51 258.09 265.73 256.85C267.54 246.7 270.07 233.17 271.52 227.03C274.77 212.87 274.77 213.24 271.15 213.24C268.74 213.24 267.42 214.75 263.68 222.01C258.38 232.16 249.47 241.44 242.72 243.69C236.81 245.7 191.15 247.45 191.75 245.57C191.99 244.82 198.98 237.93 207.17 230.16C237.18 201.59 250.43 181.29 256.94 154.1C260.67 138.31 260.67 111.37 256.94 95.46C244.65 44.21 200.79 11.88 143.79 12.25C134.03 12.25 124.39 13.13 117.52 14.63C75.11 23.53 44.26 52.73 31.85 95.71Z" id="a4iBNjkaTl"></path><radialGradient id="gradientbsD31B5et" gradientUnits="userSpaceOnUse" cx="143.89" cy="12.25" dx="143.89" dy="275.52" r="263.27"><stop style="stop-color: #8e0000;stop-opacity: 1" offset="0%"></stop><stop style="stop-color: #010000;stop-opacity: 1" offset="100%"></stop></radialGradient><path d="M86.8 98.84C86.8 100.16 86.8 106.76 86.8 118.64C88.68 119.39 89.72 119.81 89.93 119.89C91.62 120.64 99.69 121.14 107.89 121.14C108.89 121.14 113.91 121.14 122.95 121.14L123.19 149.59L123.55 178.16L128.37 178.16L133.19 178.16C133.19 173.05 133.19 170.2 133.19 169.64C132.95 123.02 132.59 113.75 130.66 111.87C129.21 110.24 125.72 109.87 112.58 109.87C111.51 109.87 106.13 109.87 96.44 109.87L96.44 97.96L96.44 86.06L147.65 86.06L198.86 86.06L198.86 102.35L198.86 118.64L203.68 118.64L208.5 118.64C208.5 106.76 208.5 100.16 208.5 98.84C208.5 85.06 208.02 78.54 207.05 77.54C205 75.41 90.29 75.41 88.24 77.54C87.28 78.54 86.8 85.06 86.8 98.84Z" id="cV1FrudBA"></path><radialGradient id="gradientauIgjcHbb" gradientUnits="userSpaceOnUse" cx="147.65" cy="75.94" dx="147.65" dy="178.16" r="102.22"><stop style="stop-color: #8e0000;stop-opacity: 1" offset="0%"></stop><stop style="stop-color: #010000;stop-opacity: 1" offset="100%"></stop></radialGradient><path d="M127.77 106.11L138.73 106.11L149.58 106.11C149.36 129.56 149.24 142.6 149.21 145.2C148.85 179.91 148.61 184.92 146.68 188.43C140.54 200.09 124.51 200.34 117.16 188.81C115.6 186.43 114.03 182.79 113.67 180.91C113.07 177.53 112.71 177.41 108.01 178.16C100.29 179.41 98.85 180.04 98.85 182.29C98.97 185.05 102.95 194.2 106.2 198.96C109.57 203.97 119.09 208.73 127.65 209.61C142.11 211.24 154.03 205.35 159.94 193.57C160.16 193.13 161.29 190.91 163.31 186.93L163.67 140.19L164.04 93.58L145.84 93.58L127.77 93.58L127.77 99.84L127.77 106.11Z" id="b4dR3RyHyj"></path><radialGradient id="gradientaIZKpyLiD" gradientUnits="userSpaceOnUse" cx="131.44" cy="93.58" dx="131.44" dy="209.88" r="116.3"><stop style="stop-color: #8e0000;stop-opacity: 1" offset="0%"></stop><stop style="stop-color: #010000;stop-opacity: 1" offset="100%"></stop></radialGradient></defs><g><g><g><use xlink:href="#a4iBNjkaTl" opacity="1" fill="url(#gradientbsD31B5et)"></use><g><use xlink:href="#a4iBNjkaTl" opacity="1" fill-opacity="0" stroke="#000000" stroke-width="1" stroke-opacity="0"></use></g></g><g><use xlink:href="#cV1FrudBA" opacity="1" fill="url(#gradientauIgjcHbb)"></use><g><use xlink:href="#cV1FrudBA" opacity="1" fill-opacity="0" stroke="#000000" stroke-width="1" stroke-opacity="0"></use></g></g><g><use xlink:href="#b4dR3RyHyj" opacity="1" fill="url(#gradientaIZKpyLiD)"></use><g><use xlink:href="#b4dR3RyHyj" opacity="1" fill-opacity="0" stroke="#000000" stroke-width="1" stroke-opacity="0"></use></g></g></g></g></svg>